Coordinates
version=1
nRows=19
nColumns=30
inDegrees=yes

Units are S.I. units (second, meters, Newtons, ...)
Angles are in degrees.

endheader
time	floatyaw	floatroll	floatpitch	floatx	floaty	floatz	pro_sup_l	deviation_l	flexion_l	cmc_flexion_l	cmc_abduction_l	mp_flexion_l	ip_flexion_l	2mcp_flexion_l	2mcp_abduction_l	2pm_flexion_l	2md_flexion_l	3mcp_flexion_l	3mcp_abduction_l	3pm_flexion_l	3md_flexion_l	4mcp_flexion_l	4mcp_abduction_l	4pm_flexion_l	4md_flexion_l	5mcp_flexion_l	5mcp_abduction_l	5pm_flexion_l	5md_flexion_l
-0.495000	-160.147433	-5.066637	-73.570646	0.080305	-0.181797	-0.016372	100.956071	5.111447	-0.227040	12.801110	13.053038	-25.970055	-41.926177	29.768494	7.061162	43.916975	30.045041	24.324245	4.240030	45.837049	30.170810	13.248365	-4.181023	52.806911	36.405545	1.125247	-8.609943	62.062859	43.595565
-0.485000	-160.147433	-5.066637	-73.570646	0.080302	-0.181772	-0.016398	100.986090	5.111640	-0.212210	12.777879	13.051749	-25.946684	-41.898216	29.780026	7.057134	43.913760	30.039377	24.309214	4.241870	45.832964	30.168909	13.238737	-4.186633	52.815754	36.406409	1.098289	-8.612933	62.104348	43.611963
-0.475000	-160.147433	-5.066637	-73.570646	0.080298	-0.181747	-0.016431	101.012691	5.111121	-0.195516	12.758117	13.047479	-25.930955	-41.870516	29.786272	7.049663	43.916784	30.037726	24.290207	4.240238	45.832114	30.169499	13.227123	-4.194024	52.821792	36.405115	1.067418	-8.607420	62.129504	43.619792
-0.465000	-160.147433	-5.066637	-73.570646	0.080294	-0.181723	-0.016470	101.035632	5.111043	-0.179230	12.743125	13.048328	-25.921936	-41.849175	29.791551	7.041948	43.924524	30.038176	24.272258	4.237154	45.829634	30.169254	13.216433	-4.202106	52.825192	36.402557	1.040764	-8.595600	62.132090	43.616013
-0.455000	-160.147433	-5.066637	-73.570646	0.080287	-0.181699	-0.016510	101.056905	5.112544	-0.165741	12.731991	13.060693	-25.917498	-41.839817	29.799155	7.037714	43.934399	30.038168	24.259086	4.234733	45.823355	30.166709	13.208624	-4.209505	52.827493	36.400336	1.025611	-8.581973	62.111907	43.600219
-0.445000	-160.147433	-5.066637	-73.570646	0.080279	-0.181676	-0.016553	101.080128	5.116086	-0.156159	12.721051	13.085728	-25.915851	-41.845276	29.811190	7.039272	43.942714	30.035196	24.251630	4.234309	45.814489	30.162665	13.203578	-4.215017	52.830988	36.400315	1.025455	-8.571209	62.074513	43.575074
-0.435000	-160.147433	-5.066637	-73.570646	0.080269	-0.181651	-0.016598	101.109758	5.121439	-0.149361	12.704850	13.118904	-25.916291	-41.864447	29.829110	7.046054	43.945608	30.027523	24.248400	4.236022	45.805356	30.158671	13.199307	-4.218069	52.837310	36.403797	1.038289	-8.565828	62.029734	43.546037
-0.425000	-160.147433	-5.066637	-73.570646	0.080258	-0.181622	-0.016651	101.150402	5.128393	-0.142237	12.678909	13.152500	-25.918957	-41.892864	29.853789	7.054680	43.940658	30.014743	24.246969	4.238864	45.796678	30.155160	13.193114	-4.218867	52.846010	36.410720	1.057176	-8.564896	61.989193	43.520015
-0.415000	-160.147433	-5.066637	-73.570646	0.080248	-0.181585	-0.016717	101.206463	5.137750	-0.131274	12.643219	13.179092	-25.924027	-41.924523	29.884554	7.060866	43.928169	29.997996	24.245145	4.241067	45.787496	30.151238	13.183003	-4.218124	52.853977	36.419253	1.073162	-8.564493	61.963269	43.503148
-0.405000	-160.147433	-5.066637	-73.570646	0.080238	-0.181536	-0.016801	101.282303	5.151822	-0.114746	12.604446	13.193952	-25.931231	-41.954069	29.917627	7.062142	43.911317	29.979734	24.240700	4.240766	45.778290	30.146620	13.168732	-4.216579	52.856100	36.426003	1.079058	-8.559868	61.958529	43.498758
-0.395000	-160.147433	-5.066637	-73.570646	0.080229	-0.181476	-0.016909	101.383128	5.173896	-0.094218	12.575021	13.195570	-25.940178	-41.978629	29.945169	7.059480	43.895042	29.963062	24.229946	4.236877	45.774164	30.143827	13.152174	-4.214746	52.846822	36.426767	1.071790	-8.548389	61.976671	43.506643
-0.385000	-160.147433	-5.066637	-73.570646	0.080221	-0.181404	-0.017046	101.516548	5.206864	-0.074128	12.568754	13.184925	-25.951030	-41.998756	29.955954	7.056515	43.884480	29.950866	24.206782	4.229941	45.783578	30.147772	13.137010	-4.213162	52.821633	36.417487	1.051957	-8.531969	62.015103	43.523951
-0.375000	-160.147433	-5.066637	-73.570646	0.080211	-0.181321	-0.017218	101.694342	5.251925	-0.058864	12.594643	13.164664	-25.964489	-42.017922	29.937881	7.056715	43.883814	29.945080	24.163949	4.222465	45.811093	30.161610	13.127964	-4.212917	52.777667	36.394971	1.021391	-8.517690	62.068436	43.546825
-0.365000	-160.147433	-5.066637	-73.570646	0.080198	-0.181219	-0.017438	101.933424	5.308679	-0.047923	12.652225	13.138823	-25.980860	-42.040708	29.881734	7.060385	43.895800	29.946328	24.096595	4.218246	45.848403	30.181377	13.129853	-4.215954	52.713373	36.357230	0.980880	-8.515745	62.129929	43.571646
-0.355000	-160.147433	-5.066637	-73.570646	0.080173	-0.181079	-0.017724	102.254692	5.377262	-0.030965	12.731676	13.112927	-25.999401	-42.071169	29.784889	7.063534	43.921594	29.954020	24.006393	4.220601	45.871459	30.194040	13.146655	-4.224678	52.627993	36.303631	0.929559	-8.534679	62.192017	43.595067
-0.345000	-160.147433	-5.066637	-73.570646	0.080123	-0.180866	-0.018108	102.678582	5.461911	0.014432	12.819338	13.093929	-26.019479	-42.113436	29.653260	7.059441	43.960875	29.966987	23.903727	4.230161	45.848503	30.181822	13.180873	-4.240839	52.521667	36.235094	0.865673	-8.575594	62.245690	43.613093
-0.335000	-160.147433	-5.066637	-73.570646	0.080016	-0.180527	-0.018633	103.217167	5.574249	0.119457	12.905704	13.089421	-26.043275	-42.174632	29.500024	7.042000	44.012862	29.984677	23.806574	4.243572	45.756012	30.130962	13.233510	-4.264083	52.396430	36.154334	0.787512	-8.628386	62.280370	43.620671
-0.325000	-160.147433	-5.066637	-73.570646	0.079811	-0.180001	-0.019355	103.864647	5.734668	0.313537	12.990390	13.106054	-26.077281	-42.266573	29.341113	7.009008	44.078518	30.008580	23.736414	4.254365	45.593111	30.039564	13.304807	-4.290838	52.257826	36.065970	0.694245	-8.672809	62.287036	43.613468
-0.315000	-160.147433	-5.066637	-73.570646	0.079448	-0.179226	-0.020331	104.589893	5.970995	0.607758	13.079534	13.148282	-26.129257	-42.401143	29.189218	6.963546	44.162577	30.042839	23.712719	4.256056	45.385373	29.919663	13.395496	-4.314148	52.115880	35.976114	0.587723	-8.684783	62.264843	43.591402
